<svg xmlns="http://www.w3.org/2000/svg" viewBox="0 0 571.39 350.61"><title>Asset 3</title><g id="Layer_2" data-name="Layer 2"><g id="Capa_1" data-name="Capa 1"><path d="M230.65,37.24a23,23,0,0,0-28.27-16.32L136,38.71a23.08,23.08,0,1,0,12,44.59l66.4-17.79A23.1,23.1,0,0,0,230.65,37.24Zm52.79,8.94a23.4,23.4,0,0,0,6-.79,23.09,23.09,0,0,0-6-45.39,23.46,23.46,0,0,0-6,.79,23.09,23.09,0,0,0,6,45.39ZM338,138.09a23.18,23.18,0,0,0-21.45-14.55,21.41,21.41,0,0,0-3,.2,23,23,0,0,0-19,16,5.44,5.44,0,0,1-5.18,3.86,5.17,5.17,0,0,1-3.52-1.39A23,23,0,0,0,270.17,136a23.33,23.33,0,0,0-6,.79l-93.4,25c-12.51,3.35-20.38,15.85-17.54,27.86a23.06,23.06,0,0,0,28.44,17l94.45-25.31a23,23,0,0,0,16.07-15.5,5.3,5.3,0,0,1,8.65-2.32,23,23,0,0,0,15.7,6.18h0A23.09,23.09,0,0,0,338,138.09Z" fill="#00356b"/><path d="M159.26,146.13a23.09,23.09,0,0,1-5.95-45.39,23.4,23.4,0,0,1,6-.79,23.09,23.09,0,0,1,0,46.18Zm57.91-15.52a23.08,23.08,0,0,1-6-45.38L294.15,63a23.48,23.48,0,0,1,6-.79,23.09,23.09,0,0,1,6,45.39l-82.94,22.22a23,23,0,0,1-6,.79Z" fill="#3c96cf"/><path d="M152.52,350.2a8.71,8.71,0,0,1-2.52-1.14,8.86,8.86,0,0,1-2-1.85,8.37,8.37,0,0,1-1.32-2.58,10.57,10.57,0,0,1-.48-3.24,11.4,11.4,0,0,1,.38-3,8.73,8.73,0,0,1,3-4.59,8.36,8.36,0,0,1,2.57-1.34,10.69,10.69,0,0,1,3.21-.47,9.13,9.13,0,0,1,7.17,3.49l-2.28,1.92a7.08,7.08,0,0,0-2.19-1.81,5.74,5.74,0,0,0-2.7-.67,5.89,5.89,0,0,0-3.1.8,5.4,5.4,0,0,0-2.1,2.26,7.29,7.29,0,0,0-.75,3.38,6.79,6.79,0,0,0,.76,3.26,5.47,5.47,0,0,0,2.12,2.22,6,6,0,0,0,3.07.79,5.69,5.69,0,0,0,2.73-.67,6.89,6.89,0,0,0,2.16-1.8l2.28,1.93a9.51,9.51,0,0,1-3.07,2.52,8.9,8.9,0,0,1-4.1.94A10.71,10.71,0,0,1,152.52,350.2Z" fill="#3c96cf"/><path d="M172.45,349.91a8.53,8.53,0,0,1-2.92-1.94,9,9,0,0,1-1.87-3,10.06,10.06,0,0,1-.67-3.71,10,10,0,0,1,.67-3.69,9,9,0,0,1,1.87-3,8.51,8.51,0,0,1,2.92-1.93,10.21,10.21,0,0,1,7.38,0,8.71,8.71,0,0,1,2.92,1.89,8.46,8.46,0,0,1,1.91,2.94,10.78,10.78,0,0,1,0,7.59,8.46,8.46,0,0,1-1.91,2.94,8.68,8.68,0,0,1-2.92,1.88,9.51,9.51,0,0,1-3.64.68A9.8,9.8,0,0,1,172.45,349.91Zm6.09-2.67a5.75,5.75,0,0,0,1.89-1.32,6.32,6.32,0,0,0,1.25-2,7.41,7.41,0,0,0,0-5.14,6.27,6.27,0,0,0-1.25-2,5.75,5.75,0,0,0-1.89-1.32,5.81,5.81,0,0,0-2.35-.48,6,6,0,0,0-2.43.5,5.59,5.59,0,0,0-1.9,1.36,6.71,6.71,0,0,0-1.22,2,7.15,7.15,0,0,0-.44,2.5,7.24,7.24,0,0,0,.44,2.51,6.48,6.48,0,0,0,1.22,2,5.46,5.46,0,0,0,1.9,1.36,6,6,0,0,0,4.78,0Z" fill="#3c96cf"/><path d="M206.7,332.22v18.19h-3.15l-8.81-12.86h-.05v12.86H191.6V332.22h3.07l8.88,13h.06v-13Z" fill="#3c96cf"/><path d="M213.88,332.22h11.44V335H217v5h6.75v2.78H217v4.85h8.89v2.77h-12Z" fill="#3c96cf"/><path d="M236.84,350.2a8.83,8.83,0,0,1-2.52-1.14,8.6,8.6,0,0,1-2-1.85,8.18,8.18,0,0,1-1.33-2.58,10.58,10.58,0,0,1-.47-3.24,11,11,0,0,1,.38-3,8.67,8.67,0,0,1,1.15-2.57,8.57,8.57,0,0,1,1.87-2,8.14,8.14,0,0,1,2.57-1.34,10.62,10.62,0,0,1,3.2-.47,9.23,9.23,0,0,1,3.86.86,9.11,9.11,0,0,1,3.31,2.63l-2.28,1.92a7.08,7.08,0,0,0-2.19-1.81,5.71,5.71,0,0,0-2.7-.67,5.92,5.92,0,0,0-3.1.8,5.4,5.4,0,0,0-2.1,2.26,7.29,7.29,0,0,0-.75,3.38,6.8,6.8,0,0,0,.77,3.26,5.38,5.38,0,0,0,2.11,2.22,6,6,0,0,0,3.07.79,5.63,5.63,0,0,0,2.73-.67,6.89,6.89,0,0,0,2.16-1.8l2.28,1.93a9.4,9.4,0,0,1-3.07,2.52,8.87,8.87,0,0,1-4.1.94A10.71,10.71,0,0,1,236.84,350.2Z" fill="#3c96cf"/><path d="M256.77,335H251.6v-2.78h13.47V335h-5.21v15.41h-3.09Z" fill="#3c96cf"/><path d="M279.15,346.5h-7.43l-1.36,3.91h-3.23l6.79-18.19h3l6.82,18.19h-3.23Zm-.94-2.68L275.45,336h0l-2.76,7.87Z" fill="#3c96cf"/><path d="M304.21,332.22v18.19h-3.15l-8.81-12.86h-.05v12.86h-3.09V332.22h3.07l8.88,13h.06v-13Z" fill="#3c96cf"/><path d="M311.39,332.22h5.79a11.08,11.08,0,0,1,3.9.67,8.57,8.57,0,0,1,3,1.88,8.17,8.17,0,0,1,1.88,2.89,9.81,9.81,0,0,1,.67,3.69A10.11,10.11,0,0,1,326,345a7.93,7.93,0,0,1-4.79,4.73,11.16,11.16,0,0,1-3.92.66h-5.87Zm5.68,15.42a7,7,0,0,0,2.61-.48,5.65,5.65,0,0,0,2-1.31,6,6,0,0,0,1.28-2,6.89,6.89,0,0,0,.45-2.5,6.82,6.82,0,0,0-.78-3.28,5.57,5.57,0,0,0-2.2-2.26,6.38,6.38,0,0,0-3.21-.81h-2.76v12.64Z" fill="#3c96cf"/><path d="M337.43,349.91a8.53,8.53,0,0,1-2.92-1.94,8.79,8.79,0,0,1-1.87-3,10.07,10.07,0,0,1-.68-3.71,10,10,0,0,1,.68-3.69,8.84,8.84,0,0,1,1.87-3,8.51,8.51,0,0,1,2.92-1.93,9.81,9.81,0,0,1,3.74-.71,9.94,9.94,0,0,1,3.64.67,8.81,8.81,0,0,1,2.92,1.89,8.46,8.46,0,0,1,1.91,2.94,10.78,10.78,0,0,1,0,7.59,8.46,8.46,0,0,1-1.91,2.94,8.78,8.78,0,0,1-2.92,1.88,9.54,9.54,0,0,1-3.64.68A9.8,9.8,0,0,1,337.43,349.91Zm6.09-2.67a5.75,5.75,0,0,0,1.89-1.32,6.32,6.32,0,0,0,1.25-2,7.41,7.41,0,0,0,0-5.14,6.27,6.27,0,0,0-1.25-2,5.75,5.75,0,0,0-1.89-1.32,5.81,5.81,0,0,0-2.35-.48,6,6,0,0,0-2.43.5,5.59,5.59,0,0,0-1.9,1.36,6.51,6.51,0,0,0-1.22,2,7.15,7.15,0,0,0-.44,2.5,7.24,7.24,0,0,0,.44,2.51,6.29,6.29,0,0,0,1.22,2,5.46,5.46,0,0,0,1.9,1.36,6,6,0,0,0,4.78,0Z" fill="#3c96cf"/><path d="M384.13,332.22l-2.23,18.19h-3l1.46-12h-.06l-5.16,8.52H373l-3.14-8.77h-.05l-1.5,12.28h-3l2.24-18.19h3.24l3.72,10.68h.08l6.26-10.68Z" fill="#3c96cf"/><path d="M398.78,346.46h-6.53l-1.71,4h-3.19l8.31-18.19h3.14l3.85,18.19h-3.14Zm-.5-2.62L396.81,336h-.05l-3.39,7.82Zm.91-13.58h-2.84l3-3.69h3.09Z" fill="#3c96cf"/><path d="M415.63,340.12l.9.5c.23.13.5.29.81.5a8,8,0,0,1,.77.55,7,7,0,0,1,.63.61,3.19,3.19,0,0,1,.51.72,3.59,3.59,0,0,1,.31.84,4.05,4.05,0,0,1,.12,1,6.36,6.36,0,0,1-.49,2.52,4.69,4.69,0,0,1-1.35,1.81,6.08,6.08,0,0,1-2,1.06,7.56,7.56,0,0,1-2.41.37,7.74,7.74,0,0,1-3.59-.83,6.24,6.24,0,0,1-2.52-2.23l2.24-2.05a4,4,0,0,0,.95,1.27,4.09,4.09,0,0,0,1.3.79,4,4,0,0,0,1.44.27,3.52,3.52,0,0,0,2.3-.76,2.2,2.2,0,0,0,.91-1.81,1.41,1.41,0,0,0-.12-.59,2,2,0,0,0-.27-.46,2.37,2.37,0,0,0-.48-.44l-.59-.38-.78-.44c-.36-.19-.65-.36-.87-.49l-.52-.3-.65-.38-.63-.39A5.65,5.65,0,0,1,411,341l-.55-.45a3.16,3.16,0,0,1-.52-.51c-.13-.15-.26-.34-.41-.55a3.55,3.55,0,0,1-.33-.64,5.16,5.16,0,0,1-.19-.71,3.56,3.56,0,0,1-.08-.8,5.12,5.12,0,0,1,.46-2.19,4.84,4.84,0,0,1,1.27-1.67,6.08,6.08,0,0,1,1.89-1.05,7.25,7.25,0,0,1,2.3-.37,6.75,6.75,0,0,1,5.33,2.64L418,336.58a4.67,4.67,0,0,0-.8-.9,3.51,3.51,0,0,0-.89-.57,4.6,4.6,0,0,0-.85-.27,4.26,4.26,0,0,0-.8-.08,2.77,2.77,0,0,0-1.89.63,2,2,0,0,0-.61,2,1.13,1.13,0,0,0,.25.45l.33.39a5.87,5.87,0,0,0,.52.4l.59.39.76.45.17.1Z" fill="#3c96cf"/><path d="M260.74,242.38l-46.36,66.55a3.8,3.8,0,0,1-3.12,1.63H195.5a3.8,3.8,0,0,1-3.78-4.08l2.75-37.71h-.15l-24.39,39.95a3.8,3.8,0,0,1-3.24,1.82H150.32a3.8,3.8,0,0,1-3.8-3.79l-.14-66.58a3.8,3.8,0,0,1,3.8-3.81H169a3.8,3.8,0,0,1,3.8,4l-.16,31.62h.16l21-33.77a3.8,3.8,0,0,1,3.23-1.79h15.19a3.8,3.8,0,0,1,3.79,4.06L213.81,272H214l22.13-33.84a3.81,3.81,0,0,1,3.18-1.72l18.35,0A3.79,3.79,0,0,1,260.74,242.38Z" fill="#3c96cf"/><path d="M136,238.83a4.15,4.15,0,0,0-4.92-4.09,24.32,24.32,0,0,0-6.81,2.54,28.38,28.38,0,0,0-9.51,8.82h-.22v-5.44a4.85,4.85,0,0,0-4.85-4.84h-18a4.85,4.85,0,0,0-4.85,4.84v65.59a4.85,4.85,0,0,0,4.85,4.84h18a4.85,4.85,0,0,0,4.85-4.84v-28q0-6.75,4-10.77t11.74-4h1a4.84,4.84,0,0,0,4.86-4.84Zm-69.27,6.22a36.33,36.33,0,0,0-12.15-7.92,40.27,40.27,0,0,0-15.23-2.89,41,41,0,0,0-20.3,5,35.86,35.86,0,0,0-14,14,42.84,42.84,0,0,0,.15,40.6,35.81,35.81,0,0,0,14.28,13.92,42.1,42.1,0,0,0,20.37,4.92,50.17,50.17,0,0,0,20.57-4,40.86,40.86,0,0,0,10.7-6.72,5,5,0,0,0,.35-7.11l-7.82-8.53a5,5,0,0,0-6.76-.52A22.35,22.35,0,0,1,42.8,291a19,19,0,0,1-10.57-2.78,11.47,11.47,0,0,1-5.19-8H71.62a6,6,0,0,0,6-5.88c0-.45,0-.92,0-1.4a41.38,41.38,0,0,0-2.91-15.57A36.21,36.21,0,0,0,66.77,245.05ZM27.12,265.24a12,12,0,0,1,4.2-7.39,12.2,12.2,0,0,1,7.92-2.67,12.47,12.47,0,0,1,4.13.68,9.68,9.68,0,0,1,3.37,2A12,12,0,0,1,49.2,261a16.22,16.22,0,0,1,1.55,4.2Z" fill="#00356b"/><path d="M317,285.06a5,5,0,0,0-6.33-.19,17.55,17.55,0,0,1-10.78,3.41,14.27,14.27,0,0,1-10.64-4.2,14.81,14.81,0,0,1-4.13-10.81,14.63,14.63,0,0,1,4-10.58,13.91,13.91,0,0,1,10.49-4.13,17.31,17.31,0,0,1,11.05,3.8,5.14,5.14,0,0,0,6.53,0l11-9.28a5.06,5.06,0,0,0,.3-7.47,39.13,39.13,0,0,0-16.5-9.45,46.43,46.43,0,0,0-14.73-1.9,45.3,45.3,0,0,0-19.95,4.93,36.11,36.11,0,0,0-14.77,13.88,39.45,39.45,0,0,0-5.26,20.41,40,40,0,0,0,5.18,20.38,35.9,35.9,0,0,0,14.28,13.88,42.13,42.13,0,0,0,20.38,4.92,52.54,52.54,0,0,0,21-3.94,41,41,0,0,0,10.29-6.21,5,5,0,0,0,0-7.64Zm77.23-45.86a49.56,49.56,0,0,0-43.22,0,36.18,36.18,0,0,0-14.77,13.88,42.25,42.25,0,0,0,0,40.83A35.89,35.89,0,0,0,351,307.75a49.92,49.92,0,0,0,43.22,0A36.13,36.13,0,0,0,409,293.91a42,42,0,0,0,0-40.83A36.42,36.42,0,0,0,394.26,239.2Zm-11.74,45a12.88,12.88,0,0,1-9.85,4.24,13.75,13.75,0,0,1-4.43-.71,12.82,12.82,0,0,1-3.79-2.07,14.72,14.72,0,0,1-2.95-3.15,13.9,13.9,0,0,1-1.93-4.13,17,17,0,0,1-.69-4.88,17.26,17.26,0,0,1,1-6,13.89,13.89,0,0,1,2.84-4.73,13.28,13.28,0,0,1,4.39-3.08,13.84,13.84,0,0,1,5.53-1.12,12.93,12.93,0,0,1,9.92,4.16,16.71,16.71,0,0,1-.07,21.47Zm186-26.87a35.05,35.05,0,0,0-20.11-20.19,40.23,40.23,0,0,0-15.23-2.89,41,41,0,0,0-20.3,5,35.92,35.92,0,0,0-14.05,14,42.84,42.84,0,0,0,.15,40.6,35.81,35.81,0,0,0,14.28,13.92,42.11,42.11,0,0,0,20.38,4.92,50.15,50.15,0,0,0,20.56-4,40.69,40.69,0,0,0,10.7-6.72,5,5,0,0,0,.36-7.11l-7.83-8.53a5,5,0,0,0-6.76-.52A22.33,22.33,0,0,1,536.54,291,19.06,19.06,0,0,1,526,288.2a11.47,11.47,0,0,1-5.19-8h44.58a6,6,0,0,0,6-5.88c0-.45,0-.92,0-1.4A41.39,41.39,0,0,0,568.47,257.32Zm-47.61,7.92A11.84,11.84,0,0,1,533,255.18a12.42,12.42,0,0,1,4.13.68,9.59,9.59,0,0,1,3.37,2,12,12,0,0,1,2.46,3.19,16.61,16.61,0,0,1,1.56,4.2Z" fill="#00356b"/><path d="M487.12,258.23a34,34,0,0,0-7.84-12,35.82,35.82,0,0,0-12.42-7.78,45.11,45.11,0,0,0-16.19-2.8h-23.3a7.54,7.54,0,0,0-7.54,7.53v60.55a7.54,7.54,0,0,0,7.54,7.53H451a46.63,46.63,0,0,0,16.4-2.75,32.76,32.76,0,0,0,19.87-19.67,42.36,42.36,0,0,0,2.65-15.25A41.3,41.3,0,0,0,487.12,258.23ZM460.73,280a11.09,11.09,0,0,1-3.55,4.64,8.55,8.55,0,0,1-5.27,1.73h-7.09V260.57h7.83a7.18,7.18,0,0,1,3.66,1,9.36,9.36,0,0,1,3,2.73,14,14,0,0,1,2,4.13,17.8,17.8,0,0,1,.72,5.12A16.56,16.56,0,0,1,460.73,280Z" fill="#00356b"/></g></g></svg>